<svg viewBox="94 235.04 404 228.96" xmlns="http://www.w3.org/2000/svg">
  <path
    d="M 323.7 236.8 C 321.5 239.2 321.6 241.2 324 243.8 C 326.5 246.5 326.7 253.4 324.4 261.1 C 322.7 266.7 311.8 289.1 309.6 291.3 C 308.9 291.9 306.8 294.5 304.9 297 C 300.6 302.6 285.9 318 284.9 318 C 284.4 318 280.8 320 276.8 322.5 C 269.3 327 255.5 331.8 252.7 330.7 C 251.9 330.4 249.5 326.6 247.5 322.3 C 245.6 318 243.3 313.3 242.5 311.8 C 241.7 310.4 241 308.6 241 308 C 241 306.1 232.1 282.8 230.4 280.2 C 228.8 277.8 225.8 277.3 224.3 279.2 C 223.7 279.9 223 283 222.7 286 C 222 293.7 211.4 316.6 202.3 330 C 199.7 333.9 197.1 337.9 196.5 338.8 C 196 339.8 195.2 340.7 194.9 341 C 194.6 341.3 192.4 344.2 190 347.5 C 187.6 350.8 183.6 356.1 181.1 359.2 C 178.5 362.3 174.9 367 173 369.5 C 169.4 374.3 147.7 395.7 140.5 401.5 C 138.3 403.3 134.5 405.9 132 407.3 C 119 414.5 106.9 420.9 102.5 423 C 96.5 425.8 94 427.8 94 429.8 C 94 431 95.2 431.2 100.3 430.8 C 106.2 430.3 113.8 427 123 421.2 C 124.4 420.3 127.6 418.6 130.2 417.4 C 132.7 416.2 137.1 413.5 140 411.3 C 145.8 407 171 384.1 171 383.1 C 171 382.8 173.1 380.2 175.6 377.5 C 181.5 370.8 181.8 370.5 185.9 364.6 C 189.8 358.9 189.9 358.8 193.8 354 C 196.6 350.6 202.1 342.8 208.9 332.6 C 211.9 328.1 216.8 319.2 225.7 301.5 L 228.2 296.6 L 232.1 306 C 236.1 315.8 245.2 334.7 247.9 338.9 C 248.7 340.2 249.5 341.9 249.6 342.7 C 249.7 343.5 251 345.6 252.4 347.5 C 253.8 349.3 255 351.1 255 351.5 C 255 352.2 259.7 359.4 263.8 365 C 267.6 370.1 271.9 373.9 273.8 374 C 275.7 374 275.3 372.5 271.3 366 C 261.3 349.7 256 340.3 256 339 C 256 338.4 257 338 258.3 338 C 268 338 286.5 326.6 299.2 312.8 C 303.9 307.7 309 302.3 310.4 300.9 C 311.8 299.4 313 297.9 313 297.6 C 313 297.3 314.5 294.6 316.3 291.7 C 321.1 284 321.7 283.1 325.1 276 C 325.994 274.212 327.037 271.831 328.006 269.434 C 328.988 267.006 329.896 264.562 330.5 262.7 C 332.7 255.9 332.7 255.9 334.3 258.3 C 335.2 259.6 340 269.2 345 279.6 C 377.1 345.9 385.7 360.3 413.4 393.5 C 424.4 406.8 445.5 428 456.9 437.2 C 465.2 443.8 495.2 464 496.9 464 C 497.5 464 498 463.2 498 462.2 C 498 461.2 494.9 458.6 489.9 455.5 C 483.2 451.3 471.9 443.2 470 441 C 469.7 440.7 467.9 439.3 466 437.8 C 454.5 429.1 426.2 400.2 415.4 386 C 412.7 382.5 409.5 378.4 408.3 377 C 407.1 375.6 404.9 372.7 403.4 370.5 C 402 368.3 399.1 364 397 361 C 383.8 341.6 375.2 325.8 359 291.5 C 352.6 278 346.3 264.7 344.1 260 C 341.5 254.4 330.8 236.6 329.6 235.8 C 327.7 234.5 325.4 234.9 323.7 236.8 L 323.7 236.8 Z"
    style="paint-order: fill; fill-opacity: 0.6"
  />
  <text
    style="
      fill: rgb(51, 51, 51);
      font-family: Inter;
      font-size: 64px;
      font-weight: 700;
      white-space: pre;
    "
    x="177.714"
    y="442.48"
  >
    tundera
  </text>
</svg>
